<?xml version="1.0" encoding="utf-8"?>
<!-- Generator: Adobe Illustrator 25.2.1, SVG Export Plug-In . SVG Version: 6.00 Build 0)  -->
<svg version="1.1" id="Layer_1" xmlns="http://www.w3.org/2000/svg" xmlns:xlink="http://www.w3.org/1999/xlink" x="0px" y="0px"
	 viewBox="0 0 106.4 99.9" style="enable-background:new 0 0 106.4 99.9;" xml:space="preserve">
<style type="text/css">
	.st0{fill:#35AC46;stroke:#35AC46;stroke-width:0.25;stroke-miterlimit:10;}
	.st1{display:none;}
	.st2{display:inline;}
	.st3{clip-path:url(#SVGID_2_);}
	.st4{stroke:#000000;stroke-width:0.5;stroke-miterlimit:10;}
	.st5{fill:#FFFFFF;stroke:#FFFFFF;stroke-width:0.25;stroke-miterlimit:10;}
</style>
<g>
	<path class="st0" d="M59.2,62.5L41.6,44.9c-2.1-2.1-2.1-5.4,0-7.5s5.4-2.1,7.5,0L66.8,55c2.1,2.1,2.1,5.4,0,7.5
		C64.7,64.6,61.4,64.6,59.2,62.5z M48.8,37.6c-1.9-1.9-5.1-1.9-7,0c-1.9,1.9-1.9,5.1,0,7l17.7,17.7c1.9,1.9,5.1,1.9,7,0
		c1.9-1.9,1.9-5.1,0-7L48.8,37.6z"/>
	<path class="st0" d="M43.7,44.3c-0.2-0.2-0.2-0.6,0-0.9l1.2-1.2L43.7,41c-0.3-0.2-0.3-0.6-0.1-0.9c0.2-0.3,0.6-0.3,0.9-0.1
		c0,0,0,0,0.1,0.1l1.2,1.2l1.2-1.2c0.2-0.3,0.6-0.3,0.9-0.1c0.2,0.2,0.3,0.6,0.1,0.9c0,0,0,0-0.1,0.1l-1.2,1.2l1.2,1.2
		c0.2,0.2,0.2,0.6,0,0.9c-0.2,0.2-0.6,0.2-0.9,0L45.8,43l-1.2,1.2C44.4,44.5,44,44.5,43.7,44.3L43.7,44.3z M44.4,40.3
		c-0.1-0.1-0.3-0.1-0.4,0l0,0c-0.1,0.1-0.1,0.3,0,0.4l1.3,1.3c0.1,0.1,0.1,0.2,0,0.2l0,0L44,43.6c-0.1,0.1-0.1,0.3,0,0.4
		c0.1,0.1,0.3,0.1,0.4,0l1.3-1.3c0.1-0.1,0.2-0.1,0.2,0l0,0l1.3,1.3c0.1,0.1,0.3,0.1,0.4,0c0.1-0.1,0.1-0.2,0-0.4l-1.3-1.3
		c-0.1-0.1-0.1-0.2,0-0.2l0,0l1.3-1.3c0.1-0.1,0.1-0.3,0-0.4s-0.3-0.1-0.4,0l-1.3,1.3c-0.1,0.1-0.2,0.1-0.2,0l0,0L44.4,40.3z"/>
	<path class="st0" d="M46.7,52.2c-4.6-4.6-4.9-6.9-4.9-7c0-0.1,0.1-0.2,0.2-0.2s0.2,0.1,0.2,0.2l0,0c0,0.1,0.7,5.3,16.3,16
		c0.1,0,0.1,0.2,0.1,0.3c0,0.1-0.2,0.1-0.3,0.1c0,0,0,0,0,0C52.8,57.7,49.1,54.6,46.7,52.2z"/>
	<path class="st0" d="M47.3,51.6c-0.7-0.7-1.3-1.4-1.9-2c-0.1-0.1-0.1-0.2,0-0.3l0,0c0.1-0.1,0.2-0.1,0.3,0l0,0
		c1.6,1.8,3.3,3.4,5.1,5c0.1,0.1,0.1,0.2,0,0.3l0,0c-0.1,0.1-0.2,0.1-0.3,0C49.3,53.6,48.2,52.6,47.3,51.6z"/>
	<path class="st0" d="M63.8,60.7c-0.3-0.3-0.3-0.9,0-1.2c0.3-0.3,0.9-0.3,1.2,0c0.3,0.3,0.3,0.9,0,1.2l0,0
		C64.6,61,64.1,61,63.8,60.7z M64.7,59.8c-0.2-0.2-0.4-0.2-0.6,0c-0.2,0.2-0.2,0.4,0,0.6c0.2,0.2,0.4,0.2,0.6,0
		C64.8,60.3,64.8,59.9,64.7,59.8z"/>
</g>
<g class="st1">
	<g class="st2">
		<defs>
			<path id="SVGID_1_" d="M29.9,21l48.4,0c5.2,0,9.4,4.2,9.4,9.4l0,0c0,5.2-4.2,9.4-9.4,9.4l-48.4,0c-5.2,0-9.4-4.2-9.4-9.4l0,0
				C20.5,25.2,24.7,21,29.9,21z"/>
		</defs>
		<clipPath id="SVGID_2_">
			<use xlink:href="#SVGID_1_"  style="overflow:visible;"/>
		</clipPath>
		<g class="st3">
			<path class="st4" d="M55.2,22.5l1.3,4.8L69,43.9c0.2,0.2,0.3,0.3,0.6,0.4l0.3,0c0.2,0,0.4-0.1,0.6-0.3l1.5-1.3
				c0.5-0.4,0.5-1.1,0.1-1.6L59.8,24.6L55.6,22c0,0-0.1,0-0.3,0c0,0-0.1,0.1-0.1,0.1C55.2,22.3,55.2,22.4,55.2,22.5z M67.3,41
				l-0.7-1l2.7-2.3l0.8,1L67.3,41z M70.2,38.9l0.5,0.7L68,42l-0.5-0.7L70.2,38.9z M66.3,39.7l-9.4-12.5l2.7-2.3l9.4,12.5L66.3,39.7z
				 M56.8,26.9l-0.6-2.2l1.3-1.1l1.9,1.1L56.8,26.9z M56.1,24.4l-0.6-2l1.7,1L56.1,24.4z M72.1,41.3c0.2,0.3,0.1,0.8-0.1,1.1
				l-1.5,1.3c-0.1,0.1-0.2,0.1-0.4,0.2h-0.3c-0.1,0-0.3-0.1-0.4-0.3l-1.1-1.5l2.7-2.3L72.1,41.3z"/>
			<path class="st4" d="M71.6,43.1c0.1,0.3,0,0.7-0.3,0.9c-0.3,0.2-0.7,0.1-0.8-0.2c0,0,0,0,0,0c-0.1-0.3,0-0.7,0.3-0.9
				S71.5,42.8,71.6,43.1L71.6,43.1z M71.4,43.3c-0.1-0.2-0.2-0.2-0.4-0.1l0,0c-0.2,0.1-0.2,0.3-0.2,0.5s0.2,0.2,0.4,0.1l0,0l0,0
				C71.4,43.7,71.5,43.5,71.4,43.3z M80.9,23.8c0.5,1.4,0.4,2.9-0.2,4.2c-0.5,0.9-1.4,1.6-2.4,1.7c-0.5,0.1-1,0.5-1.1,1L72.8,44
				c-0.3,1-1.4,1.6-2.4,1.3c-1-0.3-1.5-1.3-1.2-2.3c0,0,0,0,0-0.1l0,0l5.7-12.7c0.2-0.5,0.1-1.1-0.2-1.6c-0.9-0.9-1.2-2.2-0.8-3.3
				c0.5-1.5,1.8-2.8,3.4-3.2c0.1,0,0.2,0,0.2,0.1l0,0c0,0,0,0.1,0,0.2l-1.7,3.3l1.2,1.2h2.1l1.4-3.1C80.6,23.7,80.7,23.7,80.9,23.8
				C80.9,23.7,80.9,23.8,80.9,23.8L80.9,23.8z M80.7,24.1l-1.4,3.1l-2.4,0l-1.5-1.5l1.7-3.3c-0.2,0.1-0.4,0.2-0.6,0.3
				c-1.1,0.5-2,1.5-2.3,2.6c-0.3,1.1,0,2.3,0.8,3c0.4,0.5,0.6,1.3,0.3,1.9L69.5,43c-0.1,0.4-0.1,0.8,0,1.2c0.4,0.8,1.3,1.1,2.1,0.7
				l0,0c0.4-0.2,0.7-0.6,0.8-0.9l4.3-13.3c0.2-0.6,0.7-1.1,1.4-1.3c0.9-0.1,1.7-0.7,2.2-1.6C81,26.6,81.1,25.3,80.7,24.1z"/>
			<path class="st4" d="M29.1,42.8L35,37l-0.5-0.5l1.4-1.4c3.1,2.6,7.8,2.2,10.4-0.9c2.6-3.1,2.2-7.8-0.9-10.4
				c-3.1-2.6-7.7-2.2-10.3,0.9c-2.3,2.8-2.3,6.8,0,9.5l-1.4,1.4L33.1,35l-5.9,5.9c-0.2,0.2-0.2,0.6,0,0.9l0,0l1,1
				C28.5,43.1,28.9,43.1,29.1,42.8L29.1,42.8z M40.6,22.3c3.9,0,7.1,3.2,7.1,7.1s-3.2,7.1-7.1,7.1s-7.1-3.2-7.1-7.1l0,0l0,0
				C33.5,25.5,36.7,22.3,40.6,22.3z M35.2,34.4c0.1,0.1,0.3,0.3,0.5,0.5l-1.4,1.4l-0.5-0.5C33.7,35.8,35.2,34.4,35.2,34.4z
				 M28.5,42.6l-1-1c-0.1-0.1-0.1-0.3,0-0.5l5.6-5.6l1.5,1.5l-5.6,5.6C28.8,42.8,28.6,42.8,28.5,42.6z M46,28.8h-0.3l0-0.2
				c-0.3-2.2-2.2-3.9-4.4-4.2h-0.1v-0.3h0.1c2.3,0.3,4.3,2.1,4.6,4.5L46,28.8L46,28.8z"/>
		</g>
	</g>
</g>
<g>
	<path class="st5" d="M76.9,20.5h-7.3c-0.2,0-0.3-0.1-0.3-0.3v-12h-1c-0.7,0-1.3,0.6-1.3,1.3v4.7l-1.8,3.1c-0.2,0.3-0.1,0.8,0.3,1
		l1.5,0.9V22c0,0.7,0.6,1.3,1.3,1.3H74l2.8,1.6c0.1,0,0.1,0,0.2,0c0,0,0.1,0,0.1,0c0.2,0,0.3-0.2,0.3-0.4V21
		C77.3,20.7,77.1,20.5,76.9,20.5z M74.1,22.9h-5.8c-0.5,0-0.9-0.4-0.9-0.9V19l-1.7-1c-0.2-0.1-0.2-0.3-0.1-0.5l1.8-3.2V9.6
		c0-0.5,0.4-0.9,0.9-0.9h0.6v11.6c0,0.4,0.3,0.7,0.7,0.7h7.3c0,0,0,0,0,0l0,3.6L74.1,22.9z M77.3,13.4h-5.6v4.6h5.6V13.4z
		 M76.9,17.7h-4.8v-3.9h4.8V17.7z M72.3,7.1c-0.1,0-0.1,0-0.2-0.1c-0.1,0-0.2,0-0.3,0.1c-0.1,0.1-0.1,0.2-0.1,0.3V11h7.7
		c0.2,0,0.3,0.1,0.3,0.3v12.5h1c0.7,0,1.3-0.6,1.3-1.3v-4.7l1.8-3.1c0.2-0.3,0.1-0.8-0.3-1L82,12.7V10c0-0.7-0.6-1.3-1.3-1.3h-5.6
		L72.3,7.1z M81.6,10V13l1.7,1c0.2,0.1,0.2,0.3,0.1,0.5l-1.8,3.2v4.8c0,0.5-0.4,0.9-0.9,0.9h-0.6V11.3c0-0.4-0.3-0.7-0.7-0.7h-7.4
		l0-3.2L75,9.1h5.7C81.2,9.1,81.6,9.5,81.6,10L81.6,10z M73.5,0.9l-9.9,4.3c-1.4,0.6-2.3,2-2.3,3.5v16.6l12.2,5.3
		c0.7,0.3,1.4,0.3,2,0l9.9-4.3c1.4-0.6,2.3-2,2.3-3.5V6.2L75.5,0.9C74.9,0.6,74.1,0.6,73.5,0.9L73.5,0.9z M87.3,22.8
		c0,1.4-0.8,2.6-2.1,3.2l-9.9,4.3c-0.6,0.2-1.2,0.2-1.7,0L61.7,25V8.7c0-1.4,0.8-2.6,2.1-3.2l9.9-4.3c0.6-0.2,1.2-0.2,1.7,0
		l11.9,5.2V22.8z"/>
	<path class="st5" d="M41.8,22.3c0-0.1-0.1-0.1-0.1-0.1L39.2,21L36,22.5c-0.2,0.1-0.5,0.1-0.7,0L32.2,21l-2.5,1.2
		c-0.1,0.1-0.2,0.2-0.1,0.4c0,0.1,0.1,0.1,0.1,0.1l5.7,2.8c0.2,0.1,0.4,0.1,0.6,0l5.7-2.8C41.8,22.6,41.8,22.5,41.8,22.3L41.8,22.3z
		 M35.8,25.2c-0.1,0-0.2,0-0.2,0l-5.5-2.7l2.1-1l3,1.5c0.3,0.2,0.7,0.2,1.1,0l3-1.5l2.1,1L35.8,25.2z M29.7,18.3l5.7,2.8
		c0.2,0.1,0.4,0.1,0.6,0l5.7-2.8c0.1-0.1,0.2-0.2,0.1-0.4c0-0.1-0.1-0.1-0.1-0.1l-5.8-2.9c-0.1,0-0.2,0-0.3,0l-5.8,2.9
		c-0.1,0.1-0.2,0.2-0.1,0.4C29.6,18.2,29.7,18.2,29.7,18.3z M35.7,15.2l5.6,2.8l-5.5,2.7c-0.1,0-0.2,0-0.2,0L30.1,18L35.7,15.2z
		 M33.5,0.2c-0.7-0.3-1.5-0.3-2.1,0L21.1,4.7c-1.5,0.6-2.4,2.1-2.4,3.7v17.3l12.7,5.6c0.7,0.3,1.5,0.3,2.1,0l10.3-4.5
		c1.5-0.6,2.4-2.1,2.4-3.7V5.8L33.5,0.2z M45.9,23.1c0,1.4-0.9,2.7-2.2,3.3l-10.3,4.5c-0.6,0.3-1.2,0.3-1.8,0l-12.5-5.5V8.4
		c0-1.4,0.9-2.7,2.2-3.3l10.3-4.5c0.6-0.3,1.2-0.3,1.8,0L45.9,6V23.1z M25.6,12.4c-0.6,0.3-3.5,1.8-3.5,5.1c0,2.2,1.4,4.4,4.1,4.4
		c1.1,0,2.1-0.3,3-0.8c0.2-0.1,0.2-0.3,0.1-0.4c-0.1-0.1-0.2-0.2-0.3-0.2c-2.8,0.2-4.1-1.4-4.1-3c0-1.6,1.4-3,3.3-3.3l0.3,0L28.5,14
		c-0.2-0.5-0.3-1.1-0.4-1.7c0-1.8,1.7-3,3.1-3c1.1,0,2.1,0.6,2.6,1.6c0.1,0.2,0.2,0.4,0.4,0.4c0.1,0,0.2,0,0.2-0.1
		c0.4-0.2,0.8-0.4,1.3-0.4c1.2-0.1,2.2,0.8,2.3,2c0,0.1,0,0.2,0,0.2c0,0.3,0,0.6-0.1,0.9c0,0.1,0,0.1,0,0.2c0,0.1,0.1,0.3,0.2,0.3
		l3.9,1.9c0.2,0.1,0.4,0,0.4-0.1c0-0.1,0-0.1,0-0.2c-0.2-1.1-0.8-2.1-1.7-2.8c0,0-0.1-0.1-0.1-0.1c-0.2-2.6-2.3-4.7-5-4.7
		c-0.3,0-0.5,0-0.6,0c0,0-0.1-0.1-0.2-0.1c-1-0.9-2.3-1.4-3.7-1.4C28.4,6.9,25.9,9.3,25.6,12.4z M35,8.8C35,8.8,35,8.8,35,8.8
		c0.2,0,0.4,0,0.7,0c2.4,0,4.5,1.9,4.6,4.4c0,0.1,0.1,0.2,0.3,0.3c0.8,0.6,1.3,1.5,1.5,2.5l-3.8-1.9c0,0,0-0.1,0-0.1
		c0-0.3,0.1-0.6,0.1-0.9c0.1-1.4-1-2.6-2.4-2.7c-0.1,0-0.2,0-0.2,0c-0.5,0-1,0.2-1.5,0.4c0,0-0.1-0.1-0.1-0.1
		c-0.6-1.1-1.7-1.8-2.9-1.8c-1.9,0-3.5,1.5-3.5,3.4c0,0.5,0.1,1.1,0.3,1.6c-1.9,0.3-3.4,1.9-3.4,3.6c0,1.6,1.3,3.4,4.1,3.4l0.1,0
		c-0.8,0.4-1.6,0.6-2.5,0.6c-2.5,0-3.7-2-3.7-4c0-3.4,3.3-4.7,3.3-4.8l0.1,0l0-0.1c0.3-2.9,2.6-5.3,5.2-5.3c1.3,0,2.5,0.5,3.4,1.3
		C34.8,8.8,34.9,8.8,35,8.8z"/>
</g>
<g>
	<path class="st5" d="M14.9,34.4c-0.7-0.3-1.5-0.3-2.1,0L2.4,38.9C0.9,39.6,0,41,0,42.6v17.3l12.7,5.6c0.7,0.3,1.5,0.3,2.1,0
		L25.2,61c1.5-0.6,2.4-2.1,2.4-3.7V40L14.9,34.4z M27.2,57.3c0,1.4-0.9,2.7-2.2,3.3l-10.3,4.5c-0.6,0.3-1.2,0.3-1.8,0L0.4,59.6V42.6
		c0-1.4,0.9-2.7,2.2-3.3l10.3-4.5c0.6-0.3,1.2-0.3,1.8,0l12.5,5.5V57.3z M10.5,58.3l-4.7-4.7c-0.2-0.2-0.5-0.2-0.7,0l-1,1
		c-0.2,0.2-0.2,0.5,0,0.7l4.6,4.6l2.3,1c0,0,0.1,0,0.1,0c0.1,0,0.1,0,0.2-0.1c0.1-0.1,0.1-0.2,0.1-0.3L10.5,58.3z M4.4,54.9l1-1
		c0,0,0.1,0,0.1,0l1,1L5.4,56l-1-1C4.4,55,4.4,54.9,4.4,54.9L4.4,54.9z M5.7,56.3l1.1-1.1l3.2,3.2l-1.1,1.1L5.7,56.3z M9.2,59.7l1-1
		l0.7,1.7L9.2,59.7z M5.9,42.7v1.8H5.2c-0.4,0-0.8,0.4-0.8,0.8v0.3c0,0.4,0.4,0.8,0.8,0.8h0.7v3.1H5.2c-0.4,0-0.8,0.4-0.8,0.8v0.3
		c0,0.4,0.4,0.8,0.8,0.8h0.7v1.5h0.4v-1.5H7c0.4,0,0.8-0.4,0.8-0.8v-0.3c0-0.4-0.4-0.8-0.8-0.8H6.3v-3.1H7c0.4,0,0.8-0.4,0.8-0.8
		v-0.3c0-0.4-0.4-0.8-0.8-0.8H6.3v-1.8c0-0.4,0.3-0.7,0.7-0.7h13.2L19,43.1c-0.4,0.3-0.8,0.5-1.3,0.5H9.7c-0.2,0-0.3,0.1-0.3,0.3
		v11.7c0,0.7,0.5,1.2,1.2,1.2h6.7c1.6,0,2.9-1.3,2.9-2.9V52c0-0.2,0.1-0.5,0.3-0.6l1.3-1.3v8.1c0,0.4-0.3,0.7-0.7,0.7h-9.2v0.4h9.2
		c0.6,0,1.1-0.5,1.1-1.1c0,0,0,0,0,0v-8.5l0-0.1l-0.1-0.1c-0.1-0.1-0.3-0.1-0.4,0l-1.6,1.6c-0.2,0.2-0.4,0.6-0.4,0.9v1.9
		c0,1.4-1.1,2.5-2.5,2.5h-6.7c-0.4,0-0.8-0.4-0.8-0.8V44h7.9c0.6,0,1.2-0.2,1.6-0.6l1.4-1.2c0.1-0.1,0.1-0.3,0-0.5
		c-0.1-0.1-0.1-0.1-0.2-0.1H7.1C6.4,41.6,5.9,42.1,5.9,42.7z M7.4,50.3v0.3C7.4,50.8,7.2,51,7,51H5.2c-0.2,0-0.4-0.2-0.4-0.4v-0.3
		c0-0.2,0.2-0.4,0.4-0.4H7C7.2,49.9,7.4,50.1,7.4,50.3z M7.4,45.3v0.3C7.4,45.9,7.2,46,7,46H5.2c-0.2,0-0.4-0.2-0.4-0.4v-0.3
		c0-0.2,0.2-0.4,0.4-0.4H7C7.2,44.9,7.4,45.1,7.4,45.3z M13.7,46.6c-0.1-0.1-0.3-0.1-0.4,0L12,47.9c-0.1,0.1-0.1,0.4,0,0.5
		c0,0,0,0,0,0l3.7,3.7c0.2,0.2,0.4,0.2,0.6,0l7.2-7.2c0.1-0.1,0.1-0.3,0-0.4c0,0,0,0,0,0l-1.3-1.3c-0.1-0.1-0.3-0.1-0.4,0L16,48.9
		L13.7,46.6z M21.9,43.5l1.2,1.2L16,51.8c0,0,0,0-0.1,0c0,0,0,0,0,0l-3.6-3.6l1.2-1.2l2.5,2.5L21.9,43.5z"/>
	<path class="st5" d="M98.5,51.9c0.2,0.2,0.4,0.2,0.6,0l2.5-2.5c0.2-0.2,0.3-0.5,0.4-0.8v-5.5c0-1.6-1.2-2.5-3.2-2.5
		c-2,0-3.2,0.9-3.2,2.5v5.5c0,0.3,0.1,0.6,0.4,0.8L98.5,51.9z M96,43.1c0-1.8,1.7-2.1,2.8-2.1c1,0,2.8,0.3,2.8,2.1v5.5
		c0,0.2-0.1,0.4-0.2,0.6l-2.5,2.5l-2.5-2.5C96.1,49,96,48.8,96,48.6V43.1z M98.7,45.9L98.7,45.9c0.9,0,1.7-0.7,1.7-1.7
		s-0.7-1.7-1.7-1.7h0c-0.9,0-1.7,0.7-1.7,1.7C97.1,45.2,97.8,45.9,98.7,45.9z M98.8,43L98.8,43c0.7,0,1.3,0.6,1.3,1.3
		c0,0.7-0.6,1.3-1.3,1.3l0,0h0c-0.7,0-1.3-0.6-1.3-1.3C97.5,43.5,98.1,43,98.8,43C98.8,43,98.8,43,98.8,43z M88.9,43.6
		c-1.4,0-2.7,0.2-4.1,0.5c-0.6,0.1-1.1,0.2-1.7,0.3c-0.2,0-0.3,0.2-0.3,0.3v13.5c0,0.2,0.1,0.3,0.3,0.3c0,0,0,0,0,0l2.6-0.4
		c2.3-0.4,4.6-0.7,5.8,0.6l0.6,0.6c0.1,0.1,0.1,0.1,0.2,0.1c0.1,0,0.1,0,0.2-0.1l0.6-0.6c1.3-1.3,3.5-0.9,5.8-0.6l3,0.4v-6
		c0-0.1-0.1-0.3-0.3-0.3c-0.1,0-0.2,0.1-0.2,0.1c-0.9,1.7-2.4,2.6-4.6,2.6h-0.2c-0.9,0-2.3,0-3.1,0.3v-8.7c0.3-0.1,0.6-0.3,0.8-0.3
		l0.1,0v-2.5l-0.2,0c-0.7,0.1-1.4,0.3-1.9,0.7C91.3,43.8,90.1,43.5,88.9,43.6z M94.1,44.2v1.7c-0.3,0.1-0.6,0.2-0.9,0.4l-0.1,0.1V56
		l0.3-0.2c0.6-0.4,2.3-0.4,3.2-0.4h0.2c2.2,0,3.7-0.8,4.7-2.4v5.1L99,57.7c-2.4-0.4-4.7-0.7-6.2,0.7l-0.5,0.5l-0.5-0.5
		c-0.8-0.8-1.8-1-3-1c-1.1,0-2.1,0.1-3.2,0.3l-2.5,0.4V44.7c0.4,0,1-0.1,1.7-0.3c1.3-0.3,2.7-0.4,4-0.5c1.2-0.1,2.4,0.3,3.3,0.9
		l0.1,0.1l0.1-0.1C92.9,44.5,93.5,44.3,94.1,44.2L94.1,44.2z M85,46c-0.2,0-0.3,0.2-0.3,0.3v9c0,0.2,0.2,0.3,0.3,0.3c0,0,0,0,0.1,0
		c1.1-0.2,2.3-0.3,3.5-0.3c1.3,0,2.2,0.2,2.6,0.4l0.3,0.2v-9.6l-0.1-0.1C89.4,45.2,87,45.5,85,46L85,46z M91.2,55.3
		c-0.8-0.3-1.7-0.4-2.5-0.3c-1.2,0-2.3,0.1-3.5,0.3v-8.9c1.9-0.5,4.1-0.8,6,0.2V55.3z M91.5,34.4l-10.3,4.5
		c-1.5,0.6-2.4,2.1-2.4,3.7v17.3l12.7,5.6c0.7,0.3,1.5,0.3,2.1,0L104,61c1.5-0.6,2.4-2.1,2.4-3.7V40l-12.7-5.6
		C93,34.1,92.2,34.1,91.5,34.4L91.5,34.4z M106,57.3c0,1.4-0.9,2.7-2.2,3.3l-10.3,4.5c-0.6,0.3-1.2,0.3-1.8,0l-12.5-5.5V42.6
		c0-1.4,0.9-2.7,2.2-3.3l10.3-4.5c0.6-0.3,1.2-0.3,1.8,0l12.5,5.5V57.3z"/>
</g>
<g>
	<path class="st5" d="M36.7,92.5H39V82.2h-2.4V92.5z M37.1,82.6h1.6v9.5h-1.6V82.6z M42.5,86.1h-2.4v6.3h2.4V86.1z M42.1,92.1h-1.6
		v-5.5h1.6V92.1z M22.3,76.9v12.2c0,1.3,1,2.3,2.3,2.4h7v-2.9h-6.2c-0.4,0-0.7-0.3-0.7-0.7l0-9.3H36c0.4,0,0.7,0.3,0.7,0.7v1.3H39
		l0-1.4c-0.1-1.7-1.5-3-3.2-3H23C22.6,76.3,22.3,76.5,22.3,76.9z M38.6,79.2l0,1h-1.6v-0.9c0-0.6-0.5-1.1-1.1-1.1H24.7
		c-0.2,0-0.4,0.2-0.4,0.4v9.2c0,0.6,0.5,1.1,1.1,1.1h5.8v2.1h-6.6c-1.1,0-1.9-0.9-1.9-2V76.9c0-0.1,0.1-0.3,0.3-0.3h12.9
		C37.3,76.6,38.5,77.8,38.6,79.2z M33.2,92.5h2.4v-7.3h-2.4V92.5z M33.6,85.5h1.6v6.5h-1.6V85.5z M31.1,68.6l-10.3,4.5
		c-1.5,0.6-2.4,2.1-2.4,3.7v17.3l12.7,5.6c0.7,0.3,1.5,0.3,2.1,0l10.3-4.5C45,94.5,46,93,46,91.5V74.1l-12.7-5.6
		C32.6,68.3,31.8,68.3,31.1,68.6L31.1,68.6z M45.6,91.5c0,1.4-0.9,2.7-2.2,3.3l-10.3,4.5c-0.6,0.3-1.2,0.3-1.8,0l-12.5-5.5V76.8
		c0-1.4,0.9-2.7,2.2-3.3l10.3-4.5c0.6-0.3,1.2-0.3,1.8,0l12.5,5.5V91.5z M34.9,80.2c0.1-0.2,0-0.4-0.2-0.4c0,0-0.1,0-0.1,0h-8.4
		c-0.2,0-0.4,0.2-0.4,0.4v7.1l0.2,0c0.6,0,2.5-1.2,3-3.2c0.4-1.6,2-1.7,2.7-1.8l0.1,0C32.9,82.1,34.2,81.8,34.9,80.2z M31.7,81.8
		L31.7,81.8c-0.8,0.1-2.6,0.2-3.1,2.1c-0.4,1.3-1.2,2.3-2.4,2.9v-6.6l8.3,0C33.9,81.4,32.8,81.7,31.7,81.8z"/>
	<path class="st5" d="M71.8,84.4c0,1.2,1,2.2,2.2,2.2s2.2-1,2.2-2.2c0-1.2-1-2.2-2.2-2.2l0,0C72.8,82.2,71.8,83.2,71.8,84.4z
		 M75.7,84.4c0,1-0.8,1.8-1.8,1.8s-1.8-0.8-1.8-1.8c0-1,0.8-1.8,1.8-1.8C74.9,82.6,75.7,83.4,75.7,84.4z M68.4,77l-0.2,0.2l0.4,0.2
		c0.5,0.3,0.9,0.8,1.1,1.3l0.1,0.3l0.2-0.1c0.8-0.6,1.8-0.9,2.7-1.1v2.6c-2.2,0.7-3.4,3-2.8,5.2c0,0.1,0.1,0.2,0.1,0.3l-2.5,1.5
		c-0.5-1.2-0.7-2.5-0.5-3.8l0-0.2l-0.3,0h0c-0.7,0-1.4-0.2-1.9-0.6l-0.2-0.2l-0.1,0.3c-1.1,5.2,2.3,10.3,7.4,11.3
		c3.7,0.8,7.5-0.7,9.7-3.8l0.1-0.2l-1.8-1c-0.4-0.2-0.8-0.1-1.1,0.2c-1,1-2.4,1.7-3.8,2v-3.1c2.2-0.7,3.4-3,2.8-5.2
		c-0.4-1.3-1.4-2.4-2.8-2.8v-2.6c1.6,0.3,3,1.1,4,2.2c0.1,0.2,0.4,0.2,0.6,0.1l1.5-0.9c0.1,0,0.1-0.1,0.1-0.2c0-0.1,0-0.2-0.1-0.2
		C78.1,74.9,72.5,74.1,68.4,77z M80.9,78.9l-1.4,0.9c0,0,0,0-0.1,0c-1.2-1.3-2.7-2.2-4.5-2.4l-0.2,0v3.4l0.1,0
		c2,0.5,3.2,2.6,2.7,4.6c-0.3,1.3-1.3,2.3-2.6,2.7c-0.1,0-0.2,0.2-0.2,0.3v3.7l0.2,0c1.6-0.2,3.1-1,4.2-2.1c0.2-0.2,0.4-0.2,0.6-0.1
		l1.4,0.8c-3.1,4-8.8,4.8-12.9,1.8c-2.7-2.1-4.1-5.5-3.5-8.9c0.5,0.3,1.1,0.5,1.7,0.5c0,0.3,0,0.5,0,0.8c0,1.1,0.2,2.2,0.7,3.2
		l0.1,0.2l3-1.8c0.1-0.1,0.2-0.2,0.1-0.4c-0.8-1.9,0.1-4.1,2-4.9c0.2-0.1,0.3-0.1,0.5-0.2l0.1,0v-3.4l-0.2,0c-1,0.1-2.1,0.5-2.9,1.1
		c-0.3-0.5-0.6-0.9-1.1-1.2C72.8,74.6,77.9,75.4,80.9,78.9L80.9,78.9z M73,88c-0.5-0.1-0.9-0.3-1.3-0.6l-0.1-0.1l-3.3,2l0.2,0.2
		c1.2,1.3,2.8,2.2,4.5,2.4l0.2,0v-3.7C73.2,88.1,73.1,88,73,88z M72.8,91.5c-1.5-0.3-2.8-1-3.9-2.1l2.7-1.6c0.4,0.3,0.8,0.5,1.2,0.6
		L72.8,91.5z M80.5,82.3c0.5,1.4,0.5,2.9,0.1,4.3c-0.1,0.3,0,0.7,0.3,0.8l1.6,0.9c0,0,0.1,0,0.1,0c0,0,0.1,0,0.1,0
		c0.1,0,0.1-0.1,0.2-0.2c0.8-2.3,0.8-4.8-0.2-7.1v0c-0.1-0.2-0.2-0.2-0.4-0.2c0,0,0,0,0,0l-1.7,1C80.5,82,80.5,82.2,80.5,82.3
		L80.5,82.3z M82.4,81.3c0.9,2.1,1,4.4,0.2,6.6l-1.5-0.8C81,87,81,86.9,81,86.7c0.4-1.5,0.4-3-0.1-4.5L82.4,81.3z M66.8,82.1
		c1.1,0,1.9-0.9,1.9-1.9s-0.9-1.9-1.9-1.9s-1.9,0.9-1.9,1.9c0,0,0,0,0,0C64.9,81.2,65.7,82.1,66.8,82.1z M66.8,78.6
		c0.8,0,1.5,0.7,1.5,1.5c0,0.8-0.7,1.5-1.5,1.5c-0.8,0-1.5-0.7-1.5-1.5C65.3,79.3,65.9,78.6,66.8,78.6z M75.3,68.6
		c-0.7-0.3-1.5-0.3-2.1,0l-10.3,4.5c-1.5,0.6-2.4,2.1-2.4,3.7v17.3l12.7,5.6c0.7,0.3,1.5,0.3,2.1,0l10.3-4.5
		c1.5-0.6,2.4-2.1,2.4-3.7V74.1L75.3,68.6z M87.6,91.5c0,1.4-0.9,2.7-2.2,3.3l-10.3,4.5c-0.6,0.3-1.2,0.3-1.8,0l-12.5-5.5V76.8
		c0-1.4,0.9-2.7,2.2-3.3l10.3-4.5c0.6-0.3,1.2-0.3,1.8,0l12.5,5.5V91.5z"/>
</g>
<polygon class="st1" points="78.4,64.5 78.4,35.4 53.2,20.9 28.1,35.4 28.1,64.5 53.2,79 "/>
</svg>
