<?xml version="1.0" encoding="utf-8"?>
<!-- Generator: Adobe Illustrator 25.2.1, SVG Export Plug-In . SVG Version: 6.00 Build 0)  -->
<svg version="1.1" id="Layer_1" xmlns="http://www.w3.org/2000/svg" xmlns:xlink="http://www.w3.org/1999/xlink" x="0px" y="0px"
	 viewBox="0 0 100 100" style="enable-background:new 0 0 100 100;" xml:space="preserve">
<style type="text/css">
	.st0{fill:#35AC46;}
	.st1{clip-path:url(#SVGID_2_);}
	.st2{fill:#35AC46;stroke:#35AC46;stroke-width:0.5;stroke-miterlimit:10;}
</style>
<path class="st0" d="M55.9,87.2L5.7,37c-5.8-6.1-5.5-15.6,0.5-21.4c5.8-5.6,15-5.6,20.9,0l50.2,50.2c6.1,5.8,6.3,15.4,0.5,21.4
	c-5.8,6.1-15.4,6.3-21.4,0.5C56.3,87.6,56.1,87.4,55.9,87.2z M26.3,16.4c-5.5-5.5-14-5.2-19.4,0.2S1,30.7,6.5,36.2l50.2,50.2
	c5.5,5.5,14.4,5.5,19.8,0c5.5-5.5,5.5-14.4,0-19.8L26.3,16.4z"/>
<path class="st0" d="M11.7,35.3c-0.7-0.7-0.7-1.8,0-2.5l3.5-3.5l-3.5-3.5c-0.6-0.7-0.6-1.8,0.2-2.5c0.7-0.6,1.7-0.6,2.3,0l3.5,3.5
	l3.5-3.5c0.7-0.7,1.8-0.7,2.5,0s0.7,1.8,0,2.5l0,0l-3.5,3.5l3.5,3.5c0.7,0.7,0.6,1.8-0.1,2.5c-0.7,0.6-1.7,0.6-2.4,0l-3.5-3.5
	l-3.5,3.5C13.5,36,12.4,36,11.7,35.3z M13.5,24.1c-0.3-0.3-0.8-0.3-1.1,0c0,0,0,0,0,0c-0.3,0.3-0.3,0.8,0,1.1l3.8,3.8
	c0.2,0.2,0.2,0.5,0,0.7c0,0,0,0,0,0l-3.8,3.8c-0.3,0.3-0.3,0.8,0,1.1c0.3,0.3,0.8,0.3,1.1,0c0,0,0,0,0,0l3.8-3.8
	c0.2-0.2,0.5-0.2,0.7,0c0,0,0,0,0,0l3.8,3.8c0.3,0.3,0.8,0.3,1.1,0c0,0,0,0,0,0c0.3-0.3,0.3-0.8,0-1.1c0,0,0,0,0,0l-3.8-3.8
	c-0.2-0.2-0.2-0.5,0-0.7l3.9-3.8c0.3-0.3,0.3-0.8,0-1.1c0,0,0,0,0,0c-0.3-0.3-0.8-0.3-1.1,0c0,0,0,0,0,0L18,27.9
	c-0.2,0.2-0.5,0.2-0.7,0c0,0,0,0,0,0L13.5,24.1z"/>
<path class="st0" d="M20.2,57.8C7.1,44.8,6.3,38.4,6.3,38c0-0.3,0.3-0.6,0.6-0.6c0.3,0,0.5,0.2,0.5,0.5c0,0.2,2.1,15,46.3,45.5
	c0.2,0.2,0.3,0.6,0.1,0.8c-0.2,0.2-0.5,0.3-0.7,0.1C37.5,73.6,27.1,64.8,20.2,57.8z"/>
<path class="st0" d="M21.8,56.3c-2-2-3.8-3.9-5.4-5.8c-0.2-0.2-0.2-0.6,0.1-0.8c0,0,0,0,0,0c0.2-0.2,0.5-0.2,0.7,0c0,0,0,0,0,0
	c4.5,5.1,9.4,9.8,14.6,14.2c0.2,0.2,0.3,0.6,0.1,0.8c0,0,0,0,0,0c-0.2,0.2-0.6,0.3-0.8,0.1C27.7,62,24.6,59.1,21.8,56.3z"/>
<path class="st0" d="M68.8,82c-0.9-0.9-0.9-2.4,0-3.4s2.4-0.9,3.4,0c0.9,0.9,0.9,2.4,0,3.4c0,0,0,0,0,0C71.2,82.9,69.7,82.9,68.8,82
	z M71.3,79.4c-0.5-0.5-1.3-0.5-1.8,0c-0.5,0.5-0.5,1.3,0,1.8c0.5,0.5,1.3,0.5,1.8,0c0,0,0,0,0,0C71.8,80.7,71.8,79.9,71.3,79.4z"/>
<g>
	<defs>
		<path id="SVGID_1_" d="M45.1-7.5l57.7,57c5.3,5.3,5.4,13.9,0.1,19.2l-2.2,2.2c-5.3,5.3-13.9,5.4-19.2,0.1L23.8,14
			c-5.3-5.3-5.4-13.9-0.1-19.2l2.2-2.2C31.2-12.7,39.8-12.8,45.1-7.5z"/>
	</defs>
	<clipPath id="SVGID_2_">
		<use xlink:href="#SVGID_1_"  style="overflow:visible;"/>
	</clipPath>
	<g class="st1">
		<path class="st2" d="M69,66c-0.1,0.6-0.6,1-1.2,1c-0.6,0-1-0.4-1-1c0,0,0-0.1,0-0.1c0.1-0.6,0.6-1,1.2-1c0.6,0,1,0.4,1,1
			C69,65.9,69,66,69,66z M68.5,66c0-0.3-0.2-0.6-0.5-0.6c0,0,0,0,0,0c-0.3,0-0.6,0.2-0.7,0.5c0,0.3,0.2,0.6,0.5,0.6c0,0,0,0,0.1,0
			l0,0C68.2,66.6,68.5,66.4,68.5,66C68.5,66,68.5,66,68.5,66L68.5,66z M98.2,47.5c-0.5,2.3-1.9,4.3-3.9,5.5
			c-1.5,0.8-3.2,0.9-4.8,0.3c-0.8-0.3-1.8-0.1-2.4,0.4L69.9,68.3c-1.3,1.1-3.3,1-4.5-0.3c-1.1-1.3-0.9-3.2,0.4-4.2
			c0,0,0.1-0.1,0.1-0.1l0.1-0.1l18.7-12.5c0.8-0.5,1.1-1.4,1-2.3c-0.4-1.9,0.2-3.9,1.7-5.2c2.1-1.6,4.8-2.2,7.3-1.5
			c0.2,0,0.3,0.2,0.2,0.4c0,0,0,0,0,0c0,0.1-0.1,0.2-0.2,0.2l-5.2,3.1l0.7,2.8l2.8,1.7l4.5-3.1c0.2-0.1,0.4-0.1,0.5,0.1
			C98.2,47.3,98.2,47.4,98.2,47.5L98.2,47.5z M97.6,47.8l-4.5,3.1l-3.3-2l-0.8-3.3l5.2-3.1c-0.4-0.1-0.7-0.1-1.1-0.2
			c-2-0.2-3.9,0.4-5.4,1.6c-1.3,1.2-1.9,3-1.5,4.8c0.2,1.1-0.3,2.2-1.2,2.8L66.3,64c-0.6,0.4-0.9,1-1,1.7c-0.2,1.4,0.8,2.6,2.2,2.8
			c0,0,0.1,0,0.1,0c0.7,0.1,1.4-0.2,2-0.6l17.2-14.5c0.8-0.7,2-0.9,3-0.5c1.4,0.5,3,0.4,4.3-0.3C95.9,51.5,97.2,49.8,97.6,47.8z"/>
	</g>
</g>
</svg>
