<?xml version="1.0" encoding="utf-8"?>
<!-- Generator: Adobe Illustrator 25.2.1, SVG Export Plug-In . SVG Version: 6.00 Build 0)  -->
<svg version="1.1" id="Layer_1" xmlns="http://www.w3.org/2000/svg" xmlns:xlink="http://www.w3.org/1999/xlink" x="0px" y="0px"
	 viewBox="0 0 100 100" style="enable-background:new 0 0 100 100;" xml:space="preserve">
<style type="text/css">
	.st0{fill:#35AC46;}
	.st1{clip-path:url(#SVGID_2_);}
	.st2{fill:#35AC46;stroke:#35AC46;stroke-width:0.5;stroke-miterlimit:10;}
</style>
<path class="st0" d="M14.2,61.8l50.3-50.2c5.9-5.9,15.5-5.9,21.4,0s5.9,15.5,0,21.4L35.6,83.2c-6,5.8-15.6,5.7-21.4-0.2
	C8.5,77.1,8.5,67.7,14.2,61.8z M85.1,32.2c5.5-5.5,5.5-14.4,0-19.8c-5.5-5.5-14.4-5.5-19.8,0l0,0L15,62.6c-5.5,5.5-5.5,14.4,0,19.8
	c5.5,5.5,14.4,5.5,19.8,0L85.1,32.2z"/>
<path class="st0" d="M66.2,17.6c0.7-0.7,1.8-0.7,2.5,0l3.5,3.5l3.5-3.5c0.6-0.8,1.7-0.9,2.4-0.3c0.8,0.6,0.9,1.7,0.3,2.4
	c-0.1,0.1-0.2,0.2-0.3,0.3l-3.5,3.5L78,27c0.7,0.7,0.7,1.8,0,2.5c-0.7,0.7-1.8,0.7-2.5,0L72.1,26l-3.5,3.5c-0.7,0.7-1.8,0.7-2.5,0
	s-0.7-1.8,0-2.5l3.5-3.5L66.2,20C65.5,19.4,65.5,18.3,66.2,17.6z M77.4,19.4c0.3-0.3,0.3-0.8,0-1.1c0,0,0,0,0,0
	c-0.3-0.3-0.8-0.3-1.1,0c0,0,0,0,0,0l-3.8,3.8c-0.2,0.2-0.5,0.2-0.7,0l-3.8-3.8c-0.3-0.3-0.8-0.3-1.1,0c-0.3,0.3-0.3,0.8,0,1.1
	l3.8,3.8c0.2,0.2,0.2,0.5,0,0.7c0,0,0,0,0,0l-3.8,3.8c-0.3,0.3-0.3,0.8,0,1.1s0.8,0.3,1.1,0l0,0l3.8-3.8c0.2-0.2,0.5-0.2,0.7,0
	c0,0,0,0,0,0l3.8,3.8c0.3,0.3,0.8,0.3,1.1,0c0.3-0.3,0.3-0.8,0-1.1l-3.8-3.8c-0.2-0.2-0.2-0.5,0-0.7L77.4,19.4z"/>
<path class="st0" d="M43.6,26c13-13,19.5-13.8,19.9-13.9c0.3,0,0.6,0.2,0.6,0.5c0,0.3-0.2,0.6-0.5,0.6c0,0,0,0,0,0
	c-0.2,0-15,2.1-45.5,46.3c-0.2,0.3-0.5,0.3-0.8,0.1c-0.3-0.2-0.3-0.5-0.1-0.8C27.9,43.3,36.7,33,43.6,26z"/>
<path class="st0" d="M45.1,27.7c2-2,3.9-3.8,5.8-5.4c0.2-0.2,0.6-0.2,0.8,0.1c0,0,0,0,0,0c0.2,0.2,0.2,0.6,0,0.8c0,0,0,0,0,0
	c-5.1,4.5-9.9,9.4-14.3,14.6c-0.2,0.2-0.6,0.2-0.8,0c-0.2-0.2-0.2-0.5-0.1-0.7C39.5,33.6,42.4,30.5,45.1,27.7z"/>
<path class="st0" d="M19.5,74.6c0.9-0.9,2.4-0.9,3.3,0c0.9,0.9,0.9,2.4,0,3.3c-0.9,0.9-2.4,0.9-3.3,0C18.5,77.1,18.5,75.6,19.5,74.6
	C19.4,74.6,19.4,74.6,19.5,74.6z M22,77.2c0.4-0.5,0.4-1.3-0.2-1.8c-0.5-0.4-1.1-0.4-1.6,0c-0.4,0.5-0.4,1.3,0.2,1.8
	C20.8,77.6,21.5,77.6,22,77.2z"/>
<g>
	<defs>
		<path id="SVGID_1_" d="M109.1,51.2l-57.3,57.3c-5.3,5.3-13.9,5.3-19.2,0l-2.2-2.2c-5.3-5.3-5.3-13.9,0-19.2l57.3-57.3
			c5.3-5.3,13.9-5.3,19.2,0l2.2,2.2C114.4,37.3,114.4,45.9,109.1,51.2z"/>
	</defs>
	<clipPath id="SVGID_2_">
		<use xlink:href="#SVGID_1_"  style="overflow:visible;"/>
	</clipPath>
	<g class="st1">
		<path class="st2" d="M77.5,79.4l-7-4l-33-4.6c-0.4-0.1-0.8,0-1.2,0.2l-0.4,0.3c-0.2,0.3-0.4,0.6-0.4,1l-0.3,3.2
			c-0.1,1,0.6,1.9,1.6,2l33,4.6l7.7-1.9c0.1,0,0.3-0.1,0.3-0.3c0-0.1,0-0.2,0-0.3C77.7,79.5,77.6,79.4,77.5,79.4z M42.6,72l2,0.3
			L44.1,78l-2-0.3L42.6,72z M41.6,77.7l-1.3-0.2l0.5-5.8l1.3,0.2L41.6,77.7z M45.1,72.4L70,75.9l-0.5,5.7l-24.9-3.5L45.1,72.4z
			 M70.6,76.1l3.2,1.8l-0.2,2.8l-3.4,0.9L70.6,76.1z M74.3,78.2l2.8,1.6l-3,0.8L74.3,78.2z M36.8,77c-0.7-0.1-1.2-0.7-1.1-1.4
			l0.3-3.2c0-0.2,0.1-0.5,0.2-0.7l0.3-0.3c0.3-0.1,0.5-0.2,0.8-0.2l2.9,0.4l-0.5,5.8L36.8,77z"/>
	</g>
</g>
</svg>
