<?xml version="1.0" encoding="utf-8"?>
<!-- Generator: Adobe Illustrator 25.2.1, SVG Export Plug-In . SVG Version: 6.00 Build 0)  -->
<svg version="1.1" id="Layer_1" xmlns="http://www.w3.org/2000/svg" xmlns:xlink="http://www.w3.org/1999/xlink" x="0px" y="0px"
	 viewBox="0 0 100 100" style="enable-background:new 0 0 100 100;" xml:space="preserve">
<style type="text/css">
	.st0{fill:#35AC46;}
	.st1{clip-path:url(#SVGID_2_);}
	.st2{fill:#35AC46;stroke:#35AC46;stroke-width:0.5;stroke-miterlimit:10;}
</style>
<path class="st0" d="M88.7,36.5L38.4,86.7c-5.9,5.9-15.5,5.9-21.4,0c-5.9-5.9-5.9-15.5,0-21.4l50.3-50.2C73,9,82.6,8.8,88.7,14.5
	s6.3,15.4,0.5,21.4C89,36.1,88.8,36.3,88.7,36.5z M17.8,66.1c-5.5,5.5-5.5,14.4,0,19.8s14.4,5.5,19.8,0l0,0l50.2-50.2
	c5.5-5.5,5.5-14.4,0-19.8c-5.5-5.5-14.4-5.5-19.8,0L17.8,66.1z"/>
<path class="st0" d="M35.8,79.7c-0.7,0.7-1.8,0.7-2.5,0l-3.5-3.5l-3.5,3.5c-0.7,0.7-1.8,0.7-2.5,0c-0.7-0.7-0.7-1.8,0-2.5l0,0
	l3.5-3.5l-3.5-3.5c-0.7-0.7-0.7-1.8-0.1-2.5s1.8-0.7,2.5-0.1c0,0,0,0,0.1,0.1l3.5,3.5l3.5-3.5c0.7-0.7,1.8-0.7,2.5,0
	c0.7,0.7,0.7,1.8,0,2.5l0,0l-3.5,3.5l3.5,3.5C36.5,77.9,36.5,79,35.8,79.7z M24.6,77.9c-0.3,0.3-0.3,0.8,0,1.1s0.8,0.3,1.1,0
	l3.8-3.8c0.2-0.2,0.5-0.2,0.7,0c0,0,0,0,0,0l3.9,3.8c0.3,0.3,0.8,0.3,1.1,0s0.3-0.8,0-1.1l-3.9-3.9c-0.2-0.2-0.2-0.5,0-0.7
	c0,0,0,0,0,0l3.8-3.8c0.2-0.4,0.1-0.8-0.3-1.1c-0.2-0.1-0.6-0.1-0.8,0l-3.8,3.8c-0.2,0.2-0.5,0.2-0.7,0l-3.8-3.8
	c-0.3-0.3-0.8-0.2-1.1,0.1c-0.3,0.3-0.3,0.7,0,1l3.8,3.8c0.2,0.2,0.2,0.5,0,0.7L24.6,77.9z"/>
<path class="st0" d="M59.3,72.2c-13,13-19.5,13.8-19.9,13.9c-0.3,0-0.6-0.3-0.6-0.6c0-0.3,0.2-0.5,0.5-0.5c0.2,0,15-2.1,45.5-46.3
	c0.2-0.3,0.5-0.3,0.8-0.2c0,0,0,0,0,0c0.2,0.2,0.3,0.5,0.1,0.8C75,54.9,66.2,65.3,59.3,72.2z"/>
<path class="st0" d="M57.8,70.6c-2,2-3.9,3.8-5.8,5.4c-0.2,0.2-0.6,0.2-0.8-0.1c0,0,0,0,0,0c-0.2-0.2-0.2-0.6,0-0.8c0,0,0,0,0,0
	c5.1-4.5,9.8-9.4,14.2-14.6c0.2-0.2,0.5-0.3,0.8-0.1c0,0,0,0,0,0c0.2,0.2,0.3,0.6,0.1,0.8c0,0,0,0,0,0
	C63.4,64.7,60.5,67.8,57.8,70.6z"/>
<path class="st0" d="M83.4,23.6c-0.9,0.9-2.4,0.9-3.4,0c-0.9-0.9-0.9-2.4,0-3.4s2.4-0.9,3.4,0c0,0,0,0,0,0
	C84.4,21.2,84.4,22.7,83.4,23.6z M80.9,21.1c-0.5,0.5-0.5,1.3,0,1.8c0.5,0.5,1.3,0.5,1.8,0c0.5-0.5,0.5-1.3,0-1.8
	C82.2,20.6,81.4,20.6,80.9,21.1C80.9,21.1,80.9,21.1,80.9,21.1z"/>
<g>
	<defs>
		<path id="SVGID_1_" d="M-6.2,47l57.3-57.3c5.3-5.3,13.9-5.3,19.2,0l2.2,2.2c5.3,5.3,5.3,13.9,0,19.2L15.2,68.4
			c-5.3,5.3-13.9,5.3-19.2,0l-2.2-2.2C-11.5,60.9-11.5,52.3-6.2,47z"/>
	</defs>
	<clipPath id="SVGID_2_">
		<use xlink:href="#SVGID_1_"  style="overflow:visible;"/>
	</clipPath>
	<g class="st1">
		<path class="st2" d="M19,71.7V58.4h-1.2v-3.2c6.5-0.6,11.4-6.3,10.8-12.9s-6.3-11.4-12.9-10.8C9.2,32.1,4.3,37.8,4.9,44.4
			c0.5,5.7,5.1,10.3,10.8,10.8v3.2h-1.1v13.3c0,0.6,0.4,1,1,1H18C18.6,72.7,19,72.2,19,71.7z M8.8,35.3c4.4-4.5,11.7-4.5,16.1,0
			s4.5,11.7,0,16.1s-11.7,4.5-16.1,0c0,0,0,0,0,0l0,0C4.3,47,4.3,39.8,8.8,35.3z M16.2,55.2h1.1v3.2h-1.1V55.2z M18,72.2h-2.4
			c-0.3,0-0.6-0.2-0.6-0.6V58.9h3.5v12.8C18.6,72,18.3,72.2,18,72.2L18,72.2z M22.2,36.5l-0.3,0.4l-0.3-0.2c-2.9-2.1-6.9-2-9.8,0.2
			L11.7,37l-0.3-0.4l0.1-0.1c3-2.3,7.2-2.4,10.3-0.2C22,36.4,22.1,36.5,22.2,36.5L22.2,36.5z"/>
	</g>
</g>
</svg>
