<svg id="Layer_1" data-name="Layer 1" xmlns="http://www.w3.org/2000/svg" viewBox="0 0 100 100"><defs><style>.cls-1{fill:#aa3535;}.cls-2{fill:#f9f7f7;}</style></defs><rect class="cls-1" x="5.5" y="42.16" width="89" height="26.65" rx="13.32"/><path class="cls-1" d="M15.8,44.23l-.18,0a.51.51,0,0,1-.28-.65c9.32-24.07,14.94-26.61,15.17-26.68a.49.49,0,0,1,.63.3c.09.24,1.89,6.57-5.92,26.67a.5.5,0,0,1-.94-.36c6.31-16.21,6.54-24.13,6.27-26.06C29,18.58,23.72,24.68,16.27,43.91A.51.51,0,0,1,15.8,44.23Z"/><path class="cls-1" d="M20,39.76a.48.48,0,0,1-.2,0,.5.5,0,0,1-.26-.65,102.14,102.14,0,0,1,6.74-13.55.5.5,0,1,1,.85.53,103,103,0,0,0-6.67,13.41A.5.5,0,0,1,20,39.76Z"/><path class="cls-1" d="M81.91,69.35H18.09a13.6,13.6,0,0,1,0-27.19H81.91a13.6,13.6,0,0,1,0,27.19ZM18.09,43.16a12.6,12.6,0,0,0,0,25.19H81.91a12.6,12.6,0,0,0,0-25.19Z"/><path class="cls-2" d="M20.89,64.43a1.57,1.57,0,0,1-1.57-1.57V58.44H14.9a1.57,1.57,0,0,1,0-3.13h4.42V50.89a1.57,1.57,0,0,1,3.13,0v4.42h4.42a1.57,1.57,0,1,1,0,3.13H22.45v4.42A1.56,1.56,0,0,1,20.89,64.43Zm-6-8.25a.7.7,0,1,0,0,1.4h4.85a.43.43,0,0,1,.43.43v4.85a.71.71,0,1,0,1.41,0V58a.43.43,0,0,1,.43-.43h4.85a.7.7,0,0,0,0-1.4H22a.44.44,0,0,1-.43-.44V50.89a.71.71,0,0,0-1.41,0v4.85a.44.44,0,0,1-.43.44Z"/><path class="cls-1" d="M40.55,73.4C24,73.4,19.4,69.83,19.13,69.6a.51.51,0,0,1-.07-.71.49.49,0,0,1,.7-.06c.15.11,10.89,8.18,58.3-.47a.5.5,0,1,1,.18,1C61.53,72.39,49.35,73.4,40.55,73.4Z"/><path class="cls-1" d="M40.64,71.38q-3.78,0-7.09-.25a.5.5,0,0,1-.46-.53.49.49,0,0,1,.54-.46,123.55,123.55,0,0,0,18.28-.23.51.51,0,0,1,.54.46.5.5,0,0,1-.46.53C47.93,71.22,44.14,71.38,40.64,71.38Z"/><path class="cls-2" d="M86.75,57.88a2.13,2.13,0,1,1,2.13-2.13A2.12,2.12,0,0,1,86.75,57.88Zm0-3.25a1.13,1.13,0,0,0,0,2.25,1.13,1.13,0,1,0,0-2.25Z"/></svg>