<?xml version="1.0" encoding="utf-8"?>
<!-- Generator: Adobe Illustrator 25.2.1, SVG Export Plug-In . SVG Version: 6.00 Build 0)  -->
<svg version="1.1" id="Layer_1" xmlns="http://www.w3.org/2000/svg" xmlns:xlink="http://www.w3.org/1999/xlink" x="0px" y="0px"
	 viewBox="0 0 100 88.5" style="enable-background:new 0 0 100 88.5;" xml:space="preserve">
<style type="text/css">
	.st0{fill:#FFFFFF;}
	.st1{clip-path:url(#SVGID_2_);}
	.st2{fill:#FFFFFF;stroke:#FFFFFF;stroke-width:0.5;stroke-miterlimit:10;}
</style>
<path class="st0" d="M52,80.8L6.9,35.7c-5.3-5.3-5.3-13.9,0-19.2s13.9-5.3,19.2,0l45.1,45.1c5.3,5.3,5.3,13.9,0,19.2
	S57.4,86.1,52,80.8z M25.4,17.1c-4.9-4.9-12.9-4.9-17.8,0S2.7,30,7.6,34.9l45.1,45.1c4.9,4.9,12.9,4.9,17.8,0
	c4.9-4.9,4.9-12.9,0-17.8L25.4,17.1z"/>
<path class="st0" d="M12.4,34.2c-0.6-0.6-0.6-1.6,0-2.2l3.1-3.1l-3.1-3.1c-0.7-0.6-0.7-1.6-0.2-2.2c0.6-0.7,1.6-0.7,2.2-0.2
	c0.1,0.1,0.1,0.1,0.2,0.2l3.1,3.1l3.1-3.1c0.6-0.7,1.6-0.7,2.2-0.2s0.7,1.6,0.2,2.2c0,0.1-0.1,0.1-0.2,0.2l-3.1,3.1l3.1,3.1
	c0.6,0.6,0.6,1.6,0,2.2c-0.6,0.6-1.6,0.6-2.2,0L17.7,31l-3.1,3.1C14,34.8,13,34.8,12.4,34.2C12.4,34.2,12.4,34.2,12.4,34.2z
	 M14,24.1c-0.3-0.3-0.7-0.3-1,0c0,0,0,0,0,0c-0.3,0.3-0.3,0.7,0,1l3.4,3.4c0.2,0.2,0.2,0.4,0,0.6c0,0,0,0,0,0L13,32.5
	c-0.3,0.3-0.3,0.7,0,1c0.3,0.3,0.7,0.3,1,0l3.4-3.4c0.2-0.2,0.4-0.2,0.6,0c0,0,0,0,0,0l3.4,3.4c0.3,0.3,0.7,0.2,1-0.1
	c0.2-0.3,0.2-0.6,0-0.9L19,29.1c-0.2-0.2-0.2-0.4,0-0.6c0,0,0,0,0,0l3.4-3.4c0.3-0.3,0.3-0.7,0-1s-0.7-0.3-1,0L18,27.5
	c-0.2,0.2-0.4,0.2-0.6,0c0,0,0,0,0,0L14,24.1z"/>
<path class="st0" d="M19.9,54.4C8.2,42.7,7.5,36.9,7.5,36.6c0-0.3,0.2-0.5,0.5-0.5c0.3,0,0.5,0.2,0.5,0.5l0,0
	c0,0.2,1.9,13.5,41.5,40.9c0.2,0.1,0.3,0.4,0.2,0.7c-0.1,0.2-0.4,0.3-0.7,0.2c0,0-0.1,0-0.1-0.1C35.5,68.5,26.2,60.6,19.9,54.4z"/>
<path class="st0" d="M21.4,53c-1.8-1.8-3.4-3.5-4.8-5.2c-0.2-0.2-0.2-0.5,0-0.7c0,0,0,0,0,0c0.2-0.2,0.5-0.2,0.7,0c0,0,0,0,0,0
	c4.1,4.6,8.4,8.8,13.1,12.8c0.2,0.2,0.2,0.5,0.1,0.7c0,0,0,0,0,0c-0.2,0.2-0.5,0.2-0.7,0.1C26.7,58.1,23.9,55.5,21.4,53z"/>
<path class="st0" d="M63.6,76.1c-0.8-0.8-0.8-2.2,0-3c0.8-0.8,2.2-0.8,3,0c0.8,0.8,0.8,2.2,0,3c0,0,0,0,0,0
	C65.7,76.9,64.4,76.9,63.6,76.1z M65.9,73.8c-0.4-0.4-1.1-0.4-1.6,0c-0.4,0.4-0.4,1.1,0,1.6c0.4,0.4,1.1,0.4,1.6,0
	C66.3,75,66.3,74.2,65.9,73.8z"/>
<g>
	<defs>
		<path id="SVGID_1_" d="M43.5-3.4l49.5,49.5c5.3,5.3,5.3,13.9,0,19.2l0,0c-5.3,5.3-13.9,5.3-19.2,0L24.3,15.8
			C19,10.5,19,1.9,24.3-3.4l0,0C29.6-8.7,38.2-8.7,43.5-3.4z"/>
	</defs>
	<clipPath id="SVGID_2_">
		<use xlink:href="#SVGID_1_"  style="overflow:visible;"/>
	</clipPath>
	<g class="st1">
		<path class="st2" d="M67.8,24l-3.6,6.3L60.1,60c0,0.4,0,0.7,0.2,1.1l0.3,0.4c0.3,0.2,0.6,0.3,0.9,0.3l2.9,0.2
			c0.9,0.1,1.7-0.6,1.8-1.5l4.2-29.6L68.7,24c0-0.1-0.1-0.2-0.3-0.3c-0.1,0-0.2,0-0.3,0C68,23.8,67.9,23.9,67.8,24z M61.2,55.3
			l0.3-1.8l5.2,0.4l-0.2,1.8L61.2,55.3z M66.4,56.2l-0.2,1.2L61,57l0.2-1.2L66.4,56.2z M61.6,53l3.2-22.4l5.1,0.4l-3.1,22.4L61.6,53
			z M64.9,30.2l1.6-2.9l2.5,0.2l0.8,3.1L64.9,30.2z M66.8,26.9l1.4-2.6l0.7,2.7L66.8,26.9z M65.8,60.5c-0.1,0.6-0.7,1-1.3,1
			l-2.9-0.2c-0.2,0-0.4-0.1-0.6-0.2l-0.3-0.3c-0.1-0.2-0.2-0.5-0.1-0.7l0.4-2.6l5.2,0.4L65.8,60.5z"/>
		<path class="st2" d="M63.5,61.9c-0.2,0.5-0.7,0.8-1.2,0.6c-0.5-0.1-0.8-0.6-0.6-1.1c0,0,0,0,0-0.1c0.2-0.5,0.7-0.8,1.2-0.6
			C63.4,60.9,63.7,61.4,63.5,61.9C63.5,61.9,63.5,61.9,63.5,61.9z M63.1,61.8c0.1-0.3,0-0.5-0.3-0.6c0,0,0,0,0,0
			c-0.3-0.1-0.6,0.1-0.7,0.3c-0.1,0.2,0,0.5,0.3,0.6c0,0,0,0,0,0l0,0C62.7,62.2,63,62.1,63.1,61.8z M92.8,51.6
			c-0.9,1.9-2.5,3.4-4.5,4c-1.4,0.4-3,0.2-4.2-0.7c-0.7-0.4-1.5-0.5-2.2-0.1l-18,9.2c-1.4,0.7-3,0.2-3.8-1.1
			c-0.7-1.3-0.2-2.9,1.1-3.6c0,0,0.1,0,0.1-0.1h0.1L80.2,52c0.8-0.3,1.3-1,1.4-1.8c0-1.8,1-3.4,2.5-4.2c2.1-1,4.7-1,6.7,0.2
			c0.1,0.1,0.2,0.2,0.1,0.4c0,0,0,0,0,0c0,0.1-0.1,0.1-0.2,0.2l-5.1,1.7V51l2.1,2.1l4.6-1.8c0.2-0.1,0.3,0,0.4,0.2
			C92.8,51.5,92.8,51.6,92.8,51.6L92.8,51.6z M92.2,51.7l-4.6,1.8l-2.5-2.4v-3.1l5.1-1.7c-0.3-0.1-0.6-0.2-0.9-0.3
			c-1.7-0.6-3.5-0.5-5.1,0.3c-1.4,0.8-2.3,2.3-2.3,3.9c-0.1,1-0.7,1.9-1.6,2.2l-18.9,7.2c-0.6,0.3-1,0.7-1.2,1.3
			c-0.4,1.2,0.2,2.4,1.4,2.9c0,0,0.1,0,0.1,0c0.6,0.2,1.3,0.1,1.8-0.1l18-9.2c0.9-0.4,1.9-0.4,2.7,0.1c1.1,0.8,2.5,1,3.8,0.6
			C89.9,54.6,91.4,53.4,92.2,51.7z"/>
		<path class="st2" d="M20.4,18.2h11.9v-1.1h2.9c0.5,5.9,5.7,10.2,11.6,9.7s10.2-5.7,9.7-11.6C56,9.4,50.8,5.1,45,5.6
			c-5.2,0.5-9.3,4.5-9.7,9.7h-2.9v-1.1H20.4c-0.5,0-0.9,0.4-0.9,0.9l0,0v2.1C19.5,17.8,19.9,18.2,20.4,18.2L20.4,18.2z M53.1,9
			c4,4,4,10.5,0,14.5s-10.5,4-14.5,0s-4-10.5,0-14.5c0,0,0,0,0,0l0,0C42.6,5,49.1,5,53.1,9z M35.2,15.7c0,0.3,0,0.7,0,1h-2.9v-1
			H35.2z M19.9,17.3v-2.1c0-0.3,0.2-0.5,0.5-0.5h11.5v3.1H20.4C20.1,17.8,19.9,17.6,19.9,17.3z M51.9,21.1l-0.3-0.3l0.2-0.3
			c1.9-2.6,1.8-6.2-0.2-8.8l-0.1-0.1l0.3-0.3l0.1,0.1c2.1,2.7,2.2,6.5,0.2,9.3L51.9,21.1L51.9,21.1z"/>
	</g>
</g>
</svg>
